{
  "source": "C:\\Users\\Peter\\Desktop\\stuff\\MIUN\\quantitative_research\\video_compression\\videos\\UVG\\Bosphorus_1920x1080_120fps_420_8bit_YUV.y4m",
  "output": "C:\\Users\\Peter\\Desktop\\stuff\\MIUN\\quantitative_research\\video_compression\\compressed_videos\\UVG\\h264\\3\\Bosphorus_1920x1080_120fps_420_8bit_YUV_h264.mp4",
  "codec": "h264",
  "ok": "[yuv4mpegpipe @ 0000025975385e00] Stream #0: not enough frames to estimate rate; consider increasing probesize\nInput #0, yuv4mpegpipe, from 'C:\\Users\\Peter\\Desktop\\stuff\\MIUN\\quantitative_research\\video_compression\\videos\\UVG\\Bosphorus_1920x1080_120fps_420_8bit_YUV.y4m':\n  Duration: 00:00:05.00, start: 0.000000, bitrate: 2985989 kb/s\n  Stream #0:0: Video: rawvideo (I420 / 0x30323449), yuv420p(progressive), 1920x1080, 120 fps, 120 tbr, 120 tbn\n[out#0/mp4 @ 000002597538a600] Codec AVOption b:a (set bitrate (in bits/s)) has not been used for any stream. The most likely reason is either wrong type (e.g. a video option with no video streams) or that it is a private option of some decoder which was not actually used for any stream.\nStream mapping:\n  Stream #0:0 -> #0:0 (rawvideo (native) -> h264 (libx264))\nPress [q] to stop, [?] for help\n[libx264 @ 000002597538ca80] using cpu capabilities: MMX2 SSE2Fast SSSE3 SSE4.2 AVX FMA3 BMI2 AVX2\n[libx264 @ 000002597538ca80] profile High, level 5.1, 4:2:0, 8-bit\n[libx264 @ 000002597538ca80] 264 - core 165 r3222 b35605a - H.264/MPEG-4 AVC codec - Copyleft 2003-2025 - http://www.videolan.org/x264.html - options: cabac=1 ref=5 deblock=1:0:0 analyse=0x3:0x113 me=hex subme=8 psy=1 psy_rd=1.00:0.00 mixed_ref=1 me_range=16 chroma_me=1 trellis=2 8x8dct=1 cqm=0 deadzone=21,11 fast_pskip=1 chroma_qp_offset=-2 threads=18 lookahead_threads=3 sliced_threads=0 nr=0 decimate=1 interlaced=0 bluray_compat=0 constrained_intra=0 bframes=3 b_pyramid=2 b_adapt=1 b_bias=0 direct=3 weightb=1 open_gop=0 weightp=2 keyint=250 keyint_min=25 scenecut=40 intra_refresh=0 rc_lookahead=50 rc=cbr mbtree=1 bitrate=3000 ratetol=1.0 qcomp=0.60 qpmin=0 qpmax=69 qpstep=4 vbv_maxrate=3000 vbv_bufsize=3000 nal_hrd=none filler=0 ip_ratio=1.40 aq=1:1.00\nOutput #0, mp4, to 'C:\\Users\\Peter\\Desktop\\stuff\\MIUN\\quantitative_research\\video_compression\\compressed_videos\\UVG\\h264\\3\\Bosphorus_1920x1080_120fps_420_8bit_YUV_h264.mp4':\n  Metadata:\n    encoder         : Lavf62.3.100\n  Stream #0:0: Video: h264 (avc1 / 0x31637661), yuv420p(tv, progressive), 1920x1080, q=2-31, 3000 kb/s, 120 fps, 15360 tbn\n    Metadata:\n      encoder         : Lavc62.11.100 libx264\n    Side data:\n      cpb: bitrate max/min/avg: 3000000/0/3000000 buffer size: 3000000 vbv_delay: N/A\nframe=    0 fps=0.0 q=0.0 size=       0KiB time=N/A bitrate=N/A speed=N/A elapsed=0:00:00.51    \nframe=    0 fps=0.0 q=0.0 size=       0KiB time=N/A bitrate=N/A speed=N/A elapsed=0:00:01.04    \nframe=    0 fps=0.0 q=0.0 size=       0KiB time=N/A bitrate=N/A speed=N/A elapsed=0:00:01.61    \nframe=    0 fps=0.0 q=0.0 size=       0KiB time=N/A bitrate=N/A speed=N/A elapsed=0:00:02.28    \nframe=   28 fps=9.5 q=41.0 size=       0KiB time=00:00:00.15 bitrate=   2.6kbits/s speed=0.0509x elapsed=0:00:02.94    \nframe=   38 fps= 10 q=41.0 size=       0KiB time=00:00:00.30 bitrate=   1.3kbits/s speed=0.0817x elapsed=0:00:03.67    \nframe=   56 fps= 13 q=41.0 size=       0KiB time=00:00:00.41 bitrate=   0.9kbits/s speed=0.0991x elapsed=0:00:04.20    \nframe=   66 fps= 13 q=40.0 size=       0KiB time=00:00:00.53 bitrate=   0.7kbits/s speed=0.108x elapsed=0:00:04.95    \nframe=   92 fps= 16 q=40.0 size=       0KiB time=00:00:00.71 bitrate=   0.5kbits/s speed=0.128x elapsed=0:00:05.60    \nframe=  102 fps= 16 q=40.0 size=       0KiB time=00:00:00.83 bitrate=   0.5kbits/s speed=0.131x elapsed=0:00:06.37    \nframe=  124 fps= 17 q=40.0 size=     256KiB time=00:00:00.98 bitrate=2133.1kbits/s speed=0.139x elapsed=0:00:07.09    \nframe=  144 fps= 19 q=40.0 size=     256KiB time=00:00:01.15 bitrate=1823.9kbits/s speed=0.148x elapsed=0:00:07.76    \nframe=  156 fps= 18 q=40.0 size=     256KiB time=00:00:01.28 bitrate=1634.4kbits/s speed=0.151x elapsed=0:00:08.48    \nframe=  170 fps= 19 q=40.0 size=     256KiB time=00:00:01.40 bitrate=1498.2kbits/s speed=0.155x elapsed=0:00:09.05    \nframe=  192 fps= 20 q=40.0 size=     256KiB time=00:00:01.51 bitrate=1383.0kbits/s speed=0.155x elapsed=0:00:09.76    \nframe=  216 fps= 20 q=40.0 size=     512KiB time=00:00:01.71 bitrate=2443.5kbits/s speed=0.162x elapsed=0:00:10.58    \nframe=  233 fps= 20 q=40.0 size=     512KiB time=00:00:01.91 bitrate=2188.5kbits/s speed=0.168x elapsed=0:00:11.37    \nframe=  238 fps= 19 q=40.0 size=     512KiB time=00:00:01.92 bitrate=2179.1kbits/s speed=0.158x elapsed=0:00:12.21    \nframe=  254 fps= 20 q=40.0 size=     512KiB time=00:00:02.00 bitrate=2097.3kbits/s speed=0.155x elapsed=0:00:12.89    \nframe=  274 fps= 20 q=40.0 size=     768KiB time=00:00:02.18 bitrate=2881.8kbits/s speed=0.16x elapsed=0:00:13.65    \nframe=  294 fps= 20 q=40.0 size=     768KiB time=00:00:02.36 bitrate=2658.5kbits/s speed=0.163x elapsed=0:00:14.48    \nframe=  310 fps= 20 q=40.0 size=     768KiB time=00:00:02.50 bitrate=2516.7kbits/s speed=0.164x elapsed=0:00:15.22    \nframe=  324 fps= 20 q=40.0 size=     768KiB time=00:00:02.66 bitrate=2359.4kbits/s speed=0.166x elapsed=0:00:16.09    \nframe=  346 fps= 21 q=40.0 size=     768KiB time=00:00:02.83 bitrate=2220.6kbits/s speed=0.168x elapsed=0:00:16.83    \nframe=  366 fps= 21 q=40.0 size=    1024KiB time=00:00:03.00 bitrate=2796.3kbits/s speed=0.171x elapsed=0:00:17.57    \nframe=  386 fps= 21 q=40.0 size=    1024KiB time=00:00:03.16 bitrate=2649.2kbits/s speed=0.173x elapsed=0:00:18.25    \nframe=  414 fps= 22 q=40.0 size=    1024KiB time=00:00:03.33 bitrate=2516.7kbits/s speed=0.176x elapsed=0:00:18.95    \nframe=  436 fps= 22 q=40.0 size=    1024KiB time=00:00:03.57 bitrate=2346.6kbits/s speed=0.18x elapsed=0:00:19.81    \nframe=  462 fps= 22 q=40.0 size=    1280KiB time=00:00:03.77 bitrate=2777.8kbits/s speed=0.183x elapsed=0:00:20.58    \nframe=  483 fps= 23 q=40.0 size=    1280KiB time=00:00:03.96 bitrate=2643.6kbits/s speed=0.186x elapsed=0:00:21.29    \nframe=  488 fps= 22 q=40.0 size=    1280KiB time=00:00:04.05 bitrate=2589.2kbits/s speed=0.183x elapsed=0:00:22.18    \nframe=  509 fps= 22 q=40.0 size=    1280KiB time=00:00:04.21 bitrate=2486.8kbits/s speed=0.185x elapsed=0:00:22.80    \nframe=  530 fps= 22 q=40.0 size=    1536KiB time=00:00:04.40 bitrate=2859.8kbits/s speed=0.186x elapsed=0:00:23.60    \nframe=  550 fps= 23 q=40.0 size=    1536KiB time=00:00:04.56 bitrate=2755.5kbits/s speed=0.189x elapsed=0:00:24.16    \nframe=  565 fps= 23 q=40.0 size=    1536KiB time=00:00:04.69 bitrate=2682.1kbits/s speed=0.19x elapsed=0:00:24.67    \nframe=  593 fps= 24 q=-1.0 size=    1536KiB time=00:00:04.90 bitrate=2568.0kbits/s speed=0.194x elapsed=0:00:25.19    \n[mp4 @ 000002597538b700] Starting second pass: moving the moov atom to the beginning of the file\n[out#0/mp4 @ 000002597538a600] video:1788KiB audio:0KiB subtitle:0KiB other streams:0KiB global headers:0KiB muxing overhead: 0.440104%\nframe=  600 fps= 24 q=-1.0 Lsize=    1796KiB time=00:00:04.98 bitrate=2952.6kbits/s speed=0.196x elapsed=0:00:25.42    \n[libx264 @ 000002597538ca80] frame I:3     Avg QP:34.82  size: 30006\n[libx264 @ 000002597538ca80] frame P:151   Avg QP:35.49  size:  6505\n[libx264 @ 000002597538ca80] frame B:446   Avg QP:36.73  size:  1700\n[libx264 @ 000002597538ca80] consecutive B-frames:  0.8%  0.0%  0.5% 98.7%\n[libx264 @ 000002597538ca80] mb I  I16..4: 36.2% 60.0%  3.8%\n[libx264 @ 000002597538ca80] mb P  I16..4:  0.8%  0.3%  0.0%  P16..4: 24.7%  2.9%  3.3%  0.0%  0.0%    skip:67.9%\n[libx264 @ 000002597538ca80] mb B  I16..4:  0.0%  0.0%  0.0%  B16..8: 30.6%  0.1%  0.0%  direct: 0.0%  skip:69.3%  L0:31.3% L1:68.6% BI: 0.1%\n[libx264 @ 000002597538ca80] 8x8 transform intra:47.6% inter:91.5%\n[libx264 @ 000002597538ca80] direct mvs  spatial:97.8% temporal:2.2%\n[libx264 @ 000002597538ca80] coded y,uvDC,uvAC intra: 26.4% 21.0% 2.9% inter: 1.5% 0.8% 0.0%\n[libx264 @ 000002597538ca80] i16 v,h,dc,p: 12% 69%  4% 15%\n[libx264 @ 000002597538ca80] i8 v,h,dc,ddl,ddr,vr,hd,vl,hu:  7% 20% 12%  6% 11%  7% 15%  5% 16%\n[libx264 @ 000002597538ca80] i4 v,h,dc,ddl,ddr,vr,hd,vl,hu:  4% 21%  5%  7% 11%  8% 16%  6% 22%\n[libx264 @ 000002597538ca80] i8c dc,h,v,p: 45% 48%  4%  2%\n[libx264 @ 000002597538ca80] Weighted P-Frames: Y:0.0% UV:0.0%\n[libx264 @ 000002597538ca80] ref P L0: 55.2% 16.1% 21.6%  3.1%  4.0%\n[libx264 @ 000002597538ca80] ref B L0: 93.6%  4.9%  1.2%  0.4%\n[libx264 @ 000002597538ca80] ref B L1: 95.7%  4.3%\n[libx264 @ 000002597538ca80] kb/s:2928.63\n",
  "seconds": 26.350232362747192,
  "probe_out": {}
}